# xmcd
#
# Track frame offsets:
#	150
#	16172
#	29512
#	52112
#	62187
#	79487
#	96645
#	116145
#	131137
#	145352
#	169240
#	186127
#
# Disc length: 2751 seconds
#
# Revision: 1
# Processed by: cddbd v1.4PL0 Copyright (c) Steve Scherf et al.
# Submitted via: audiograbber 1.81.01
#
DISCID=ba0abd0c
DTITLE=Black Mountain Blues Band - Prophets in their own country
DYEAR=1992
DGENRE=Blues
TTITLE0=Membership Card
TTITLE1=She's in the Middle
TTITLE2="Go Back to the Country"- Blues
TTITLE3=Caddilac Man
TTITLE4=Down on the Farm
TTITLE5=You Got Me Where You Want Me
TTITLE6=Tough Guy
TTITLE7=Standing at the Crossroads agein
TTITLE8=No Lover
TTITLE9=Call Me The Breeze
TTITLE10=Hands Off
TTITLE11=Last Night
EXTD=
EXTT0=
EXTT1=
EXTT2=
EXTT3=
EXTT4=
EXTT5=
EXTT6=
EXTT7=
EXTT8=
EXTT9=
EXTT10=
EXTT11=
PLAYORDER=
